<svg xmlns="http://www.w3.org/2000/svg" width="521.033" height="521.031" viewBox="0 0 521.033 521.031"><path fill="#464049" d="M519.708 513.322l-32.367-32.362V4.516c0-1.826-1.1-3.473-2.785-4.172a4.521 4.521 0 0 0-4.924.979l-116.381 116.38L246.863 1.323h-.017A4.505 4.505 0 0 0 243.668 0H4.515a4.517 4.517 0 0 0-3.193 7.709L33.69 40.075v476.438c0 1.826 1.1 3.475 2.788 4.172a4.52 4.52 0 0 0 1.727.346c1.175 0 2.33-.459 3.194-1.322l116.38-116.374 116.387 116.374h.018a4.508 4.508 0 0 0 3.178 1.322h239.156a4.52 4.52 0 0 0 4.172-2.788 4.517 4.517 0 0 0-.982-4.921zM363.251 130.475l108.674 108.68H254.572l76.845-76.846 31.834-31.834zm-96.793 142.377H49.107l108.672-108.68 108.679 108.68zm-11.886-24.666h217.351L363.251 356.857 254.572 248.186zM49.107 281.884h217.349l-108.678 108.68-42.228-42.229-66.443-66.451zm320.532 81.36l108.672-108.672v217.351L369.639 363.244zm-71.627-180.3l-54.342 54.339-108.673-108.678H352.35l-54.338 54.339zm-236.331 64.56l-18.96 18.961V49.108l108.671 108.679-89.711 89.717zm215.677 36.25l108.674 108.68H168.68l108.678-108.68zm200.953-50.986L369.639 124.089 478.311 15.417v217.351zM134.997 119.573l76.844-76.843 31.829-31.829 108.68 108.672H134.997zM232.768 9.031l-76.844 76.843-31.829 31.829L15.416 9.031h217.352zM42.721 505.613V288.27l108.671 108.68L42.721 505.613zm343.311-104.148l-35.477 35.473-73.197 73.192L168.68 401.465h217.352zM288.262 512l35.477-35.475 73.197-73.19L505.614 512H288.262z"/><path fill="#00577B" d="M478.311 471.923V254.572L369.639 363.244z"/><path fill="#0079AA" d="M363.252 356.857l108.672-108.671H254.572z"/><path fill="#0096D3" d="M471.926 239.155l-108.674-108.68-31.835 31.834-76.845 76.846z"/><path fill="#01B0F0" d="M243.67 237.283l54.342-54.339 54.338-54.339H134.997zM478.311 232.768V15.417L369.639 124.089z"/><path fill="#27BCF3" d="M352.35 119.573L243.67 10.901 211.841 42.73l-76.844 76.843z"/><path fill="#4FC9F5" d="M232.768 9.031H15.416l108.679 108.672 31.829-31.829z"/><path fill="#79201B" d="M42.721 49.108v217.357l18.96-18.961 89.711-89.717z"/><path fill="#A42D26" d="M157.779 164.172L49.107 272.852h217.351z"/><path fill="#CC382F" d="M49.107 281.884l66.443 66.451 42.228 42.229 108.678-108.68z"/><path fill="#F0453F" d="M42.721 288.27v217.343L151.392 396.95zM277.358 283.754L168.68 392.434h217.352z"/><path fill="#F2625D" d="M168.68 401.465L277.358 510.13l73.197-73.192 35.477-35.473z"/><path fill="#F47F7D" d="M323.739 476.525L288.262 512h217.352L396.936 403.335z"/></svg>