<svg xmlns="http://www.w3.org/2000/svg" width="258.258" height="258.258" viewBox="156.836 156.835 258.258 258.258"><path fill="#00577B" stroke="#464049" stroke-width="2.258" stroke-linejoin="bevel" stroke-miterlimit="10" d="M397.12 277.542l-59.786 59.788 59.786 59.79V277.542z"/><path fill="#01B0F0" stroke="#464049" stroke-width="2.258" stroke-linejoin="round" stroke-miterlimit="10" d="M397.12 157.964l-59.786 59.787 59.786 59.793v-119.58z"/><path fill="#4FC9F5" stroke="#464049" stroke-width="2.258" stroke-linejoin="round" stroke-miterlimit="10" d="M157.965 157.964l59.79 59.787 59.788-59.785H157.965z"/><path fill="#01B0F0" stroke="#464049" stroke-width="2.258" stroke-linejoin="bevel" stroke-miterlimit="10" d="M217.756 217.75l59.787 59.792 59.792-59.79h-119.58z"/><path fill="#27BCF3" stroke="#464049" stroke-width="2.258" stroke-linejoin="bevel" stroke-miterlimit="10" d="M337.334 217.75l-59.792-59.786-59.787 59.787h119.58z"/><path fill="#0079AA" stroke="#464049" stroke-width="2.258" stroke-linejoin="bevel" stroke-miterlimit="10" d="M277.542 277.542l59.792 59.788 59.786-59.788H277.542z"/><path fill="#0096D3" stroke="#464049" stroke-width="2.258" stroke-linejoin="bevel" stroke-miterlimit="10" d="M397.12 277.542l-59.786-59.79-59.792 59.79H397.12z"/><path fill="#79201B" stroke="#464049" stroke-width="2.258" stroke-linejoin="bevel" stroke-miterlimit="10" d="M174.81 294.39l59.786-59.79-59.786-59.79v119.58z"/><path fill="#F0453F" stroke="#464049" stroke-width="2.258" stroke-linejoin="round" stroke-miterlimit="10" d="M174.81 413.964l59.786-59.782-59.786-59.792v119.574z"/><path fill="#F47F7D" stroke="#464049" stroke-width="2.258" stroke-linejoin="round" stroke-miterlimit="10" d="M413.965 413.964l-59.79-59.782-59.787 59.782h119.577z"/><path fill="#F0453F" stroke="#464049" stroke-width="2.258" stroke-linejoin="bevel" stroke-miterlimit="10" d="M354.175 354.182l-59.787-59.792-59.79 59.792h119.577z"/><path fill="#F2625D" stroke="#464049" stroke-width="2.258" stroke-linejoin="bevel" stroke-miterlimit="10" d="M234.596 354.182l59.79 59.782 59.788-59.782H234.596z"/><path fill="#A42D26" stroke="#464049" stroke-width="2.258" stroke-linejoin="bevel" stroke-miterlimit="10" d="M294.387 294.39l-59.79-59.79-59.787 59.79h119.577z"/><path fill="#CC382F" stroke="#464049" stroke-width="2.258" stroke-linejoin="bevel" stroke-miterlimit="10" d="M174.81 294.39l59.786 59.792 59.79-59.792H174.81z"/></svg>